<mxfile host="app.diagrams.net" agent="Mozilla/5.0 (Windows NT 10.0; Win64; x64) AppleWebKit/537.36 (KHTML, like Gecko) Chrome/136.0.0.0 Safari/537.36" version="27.0.9">
  <diagram name="Page-1" id="8iPRQ8nk5fNpox4zukEc">
    <mxGraphModel dx="1042" dy="527" grid="1" gridSize="10" guides="1" tooltips="1" connect="1" arrows="1" fold="1" page="1" pageScale="1" pageWidth="827" pageHeight="1169" math="0" shadow="0">
      <root>
        <mxCell id="0" />
        <mxCell id="1" parent="0" />
        <mxCell id="RG2h2jKhyS0ISpvMEcNR-1" value="" style="edgeStyle=orthogonalEdgeStyle;rounded=0;orthogonalLoop=1;jettySize=auto;html=1;fontFamily=Helvetica;fontSize=12;fontColor=#000000;" edge="1" parent="1" source="RG2h2jKhyS0ISpvMEcNR-3" target="RG2h2jKhyS0ISpvMEcNR-7">
          <mxGeometry relative="1" as="geometry" />
        </mxCell>
        <mxCell id="RG2h2jKhyS0ISpvMEcNR-2" value="" style="edgeStyle=orthogonalEdgeStyle;rounded=0;orthogonalLoop=1;jettySize=auto;html=1;fontFamily=Helvetica;fontSize=12;fontColor=#000000;" edge="1" parent="1" source="RG2h2jKhyS0ISpvMEcNR-3" target="RG2h2jKhyS0ISpvMEcNR-4">
          <mxGeometry relative="1" as="geometry" />
        </mxCell>
        <mxCell id="RG2h2jKhyS0ISpvMEcNR-3" value="n == 2 ?" style="rhombus;whiteSpace=wrap;html=1;shadow=0;fontFamily=Helvetica;fontSize=12;align=center;strokeWidth=1;spacing=6;spacingTop=-4;fontColor=#000000;" vertex="1" parent="1">
          <mxGeometry x="70" y="292" width="100" height="80" as="geometry" />
        </mxCell>
        <mxCell id="RG2h2jKhyS0ISpvMEcNR-4" value="Bilangan Prima" style="rounded=1;whiteSpace=wrap;html=1;fontSize=12;glass=0;strokeWidth=1;shadow=0;fontFamily=Helvetica;fontColor=#000000;" vertex="1" parent="1">
          <mxGeometry x="220" y="312" width="120" height="40" as="geometry" />
        </mxCell>
        <mxCell id="RG2h2jKhyS0ISpvMEcNR-5" value="" style="edgeStyle=orthogonalEdgeStyle;rounded=0;orthogonalLoop=1;jettySize=auto;html=1;fontFamily=Helvetica;fontSize=12;fontColor=#000000;" edge="1" parent="1" source="RG2h2jKhyS0ISpvMEcNR-7" target="RG2h2jKhyS0ISpvMEcNR-10">
          <mxGeometry relative="1" as="geometry" />
        </mxCell>
        <mxCell id="RG2h2jKhyS0ISpvMEcNR-6" value="" style="edgeStyle=orthogonalEdgeStyle;rounded=0;orthogonalLoop=1;jettySize=auto;html=1;fontFamily=Helvetica;fontSize=12;fontColor=#000000;" edge="1" parent="1" source="RG2h2jKhyS0ISpvMEcNR-7" target="RG2h2jKhyS0ISpvMEcNR-20">
          <mxGeometry relative="1" as="geometry" />
        </mxCell>
        <mxCell id="RG2h2jKhyS0ISpvMEcNR-7" value="n genap ?" style="rhombus;whiteSpace=wrap;html=1;shadow=0;fontFamily=Helvetica;fontSize=12;align=center;strokeWidth=1;spacing=6;spacingTop=-4;fontColor=#000000;" vertex="1" parent="1">
          <mxGeometry x="70" y="408" width="100" height="80" as="geometry" />
        </mxCell>
        <mxCell id="RG2h2jKhyS0ISpvMEcNR-8" value="" style="edgeStyle=orthogonalEdgeStyle;rounded=0;orthogonalLoop=1;jettySize=auto;html=1;fontFamily=Helvetica;fontSize=12;fontColor=#000000;" edge="1" parent="1" source="RG2h2jKhyS0ISpvMEcNR-9" target="RG2h2jKhyS0ISpvMEcNR-20">
          <mxGeometry relative="1" as="geometry" />
        </mxCell>
        <mxCell id="RG2h2jKhyS0ISpvMEcNR-9" value="Inisialisai i = 3" style="rounded=1;whiteSpace=wrap;html=1;fontSize=12;glass=0;strokeWidth=1;shadow=0;fontFamily=Helvetica;fontColor=#000000;" vertex="1" parent="1">
          <mxGeometry x="60" y="523" width="120" height="40" as="geometry" />
        </mxCell>
        <mxCell id="RG2h2jKhyS0ISpvMEcNR-10" value="Bukan Bilangan Prima" style="rounded=1;whiteSpace=wrap;html=1;fontSize=12;glass=0;strokeWidth=1;shadow=0;fontFamily=Helvetica;fontColor=#000000;" vertex="1" parent="1">
          <mxGeometry x="220" y="428" width="120" height="40" as="geometry" />
        </mxCell>
        <mxCell id="RG2h2jKhyS0ISpvMEcNR-11" value="" style="edgeStyle=orthogonalEdgeStyle;rounded=0;orthogonalLoop=1;jettySize=auto;html=1;fontFamily=Helvetica;fontSize=12;fontColor=#000000;" edge="1" parent="1" source="RG2h2jKhyS0ISpvMEcNR-12" target="RG2h2jKhyS0ISpvMEcNR-16">
          <mxGeometry relative="1" as="geometry" />
        </mxCell>
        <mxCell id="RG2h2jKhyS0ISpvMEcNR-12" value="start" style="strokeWidth=1;html=1;shape=mxgraph.flowchart.start_1;whiteSpace=wrap;fontFamily=Helvetica;fontSize=12;fontColor=#000000;" vertex="1" parent="1">
          <mxGeometry x="74" y="40" width="86" height="47" as="geometry" />
        </mxCell>
        <mxCell id="RG2h2jKhyS0ISpvMEcNR-13" value="input n" style="rounded=1;whiteSpace=wrap;html=1;fontSize=12;glass=0;strokeWidth=1;shadow=0;fontFamily=Helvetica;fontColor=#000000;" vertex="1" parent="1">
          <mxGeometry x="60" y="115" width="120" height="40" as="geometry" />
        </mxCell>
        <mxCell id="RG2h2jKhyS0ISpvMEcNR-14" value="" style="edgeStyle=orthogonalEdgeStyle;rounded=0;orthogonalLoop=1;jettySize=auto;html=1;fontFamily=Helvetica;fontSize=12;fontColor=#000000;" edge="1" parent="1" source="RG2h2jKhyS0ISpvMEcNR-16" target="RG2h2jKhyS0ISpvMEcNR-3">
          <mxGeometry relative="1" as="geometry" />
        </mxCell>
        <mxCell id="RG2h2jKhyS0ISpvMEcNR-15" value="" style="edgeStyle=orthogonalEdgeStyle;rounded=0;orthogonalLoop=1;jettySize=auto;html=1;fontFamily=Helvetica;fontSize=12;fontColor=#000000;" edge="1" parent="1" source="RG2h2jKhyS0ISpvMEcNR-16" target="RG2h2jKhyS0ISpvMEcNR-17">
          <mxGeometry relative="1" as="geometry" />
        </mxCell>
        <mxCell id="RG2h2jKhyS0ISpvMEcNR-16" value="n &amp;lt; 1?" style="rhombus;whiteSpace=wrap;html=1;shadow=0;fontFamily=Helvetica;fontSize=12;align=center;strokeWidth=1;spacing=6;spacingTop=-4;fontColor=#000000;" vertex="1" parent="1">
          <mxGeometry x="70" y="184" width="100" height="80" as="geometry" />
        </mxCell>
        <mxCell id="RG2h2jKhyS0ISpvMEcNR-17" value="Bukan Bilangan Prima" style="rounded=1;whiteSpace=wrap;html=1;fontSize=12;glass=0;strokeWidth=1;shadow=0;fontFamily=Helvetica;fontColor=#000000;" vertex="1" parent="1">
          <mxGeometry x="220" y="204" width="120" height="40" as="geometry" />
        </mxCell>
        <mxCell id="RG2h2jKhyS0ISpvMEcNR-18" value="" style="edgeStyle=orthogonalEdgeStyle;rounded=0;orthogonalLoop=1;jettySize=auto;html=1;fontFamily=Helvetica;fontSize=12;fontColor=#000000;" edge="1" parent="1" source="RG2h2jKhyS0ISpvMEcNR-20" target="RG2h2jKhyS0ISpvMEcNR-23">
          <mxGeometry relative="1" as="geometry" />
        </mxCell>
        <mxCell id="RG2h2jKhyS0ISpvMEcNR-19" value="" style="edgeStyle=orthogonalEdgeStyle;rounded=0;orthogonalLoop=1;jettySize=auto;html=1;fontFamily=Helvetica;fontSize=12;fontColor=#000000;" edge="1" parent="1" source="RG2h2jKhyS0ISpvMEcNR-20" target="RG2h2jKhyS0ISpvMEcNR-24">
          <mxGeometry relative="1" as="geometry" />
        </mxCell>
        <mxCell id="RG2h2jKhyS0ISpvMEcNR-20" value="&lt;div style=&quot;overflow: auto; padding: 9.144px 13.716px; text-wrap-mode: wrap; word-break: break-all; text-align: start; margin-top: 0px !important; margin-bottom: 0px !important;&quot;&gt;i ≤ √n?&lt;/div&gt;" style="rhombus;whiteSpace=wrap;html=1;shadow=0;fontFamily=Helvetica;fontSize=12;align=center;strokeWidth=1;spacing=6;spacingTop=-4;fontColor=#000000;" vertex="1" parent="1">
          <mxGeometry x="70" y="600" width="100" height="80" as="geometry" />
        </mxCell>
        <mxCell id="RG2h2jKhyS0ISpvMEcNR-21" value="" style="edgeStyle=orthogonalEdgeStyle;rounded=0;orthogonalLoop=1;jettySize=auto;html=1;fontFamily=Helvetica;fontSize=12;fontColor=#000000;" edge="1" parent="1" source="RG2h2jKhyS0ISpvMEcNR-23" target="RG2h2jKhyS0ISpvMEcNR-27">
          <mxGeometry relative="1" as="geometry" />
        </mxCell>
        <mxCell id="RG2h2jKhyS0ISpvMEcNR-22" value="" style="edgeStyle=orthogonalEdgeStyle;rounded=0;orthogonalLoop=1;jettySize=auto;html=1;fontFamily=Helvetica;fontSize=12;fontColor=#000000;" edge="1" parent="1" source="RG2h2jKhyS0ISpvMEcNR-23" target="RG2h2jKhyS0ISpvMEcNR-25">
          <mxGeometry relative="1" as="geometry" />
        </mxCell>
        <mxCell id="RG2h2jKhyS0ISpvMEcNR-23" value="&lt;div style=&quot;overflow: auto; padding: 9.144px 13.716px; text-wrap-mode: wrap; word-break: break-all; margin-top: 0px !important; margin-bottom: 0px !important;&quot;&gt;n % i == 0?&lt;/div&gt;" style="rhombus;whiteSpace=wrap;html=1;shadow=0;fontFamily=Helvetica;fontSize=12;align=center;strokeWidth=1;spacing=6;spacingTop=-4;fontColor=#000000;" vertex="1" parent="1">
          <mxGeometry x="70" y="703" width="100" height="80" as="geometry" />
        </mxCell>
        <mxCell id="RG2h2jKhyS0ISpvMEcNR-24" value="Bilangan Prima" style="rounded=1;whiteSpace=wrap;html=1;fontSize=12;glass=0;strokeWidth=1;shadow=0;fontFamily=Helvetica;fontColor=#000000;" vertex="1" parent="1">
          <mxGeometry x="220" y="620" width="120" height="40" as="geometry" />
        </mxCell>
        <mxCell id="RG2h2jKhyS0ISpvMEcNR-25" value="Bukan Bilangan Prima" style="rounded=1;whiteSpace=wrap;html=1;fontSize=12;glass=0;strokeWidth=1;shadow=0;fontFamily=Helvetica;fontColor=#000000;" vertex="1" parent="1">
          <mxGeometry x="220" y="723" width="120" height="40" as="geometry" />
        </mxCell>
        <mxCell id="RG2h2jKhyS0ISpvMEcNR-26" style="edgeStyle=orthogonalEdgeStyle;rounded=0;orthogonalLoop=1;jettySize=auto;html=1;entryX=0;entryY=0.5;entryDx=0;entryDy=0;fontFamily=Helvetica;fontSize=12;fontColor=#000000;" edge="1" parent="1" source="RG2h2jKhyS0ISpvMEcNR-27" target="RG2h2jKhyS0ISpvMEcNR-20">
          <mxGeometry relative="1" as="geometry">
            <Array as="points">
              <mxPoint x="40" y="834" />
              <mxPoint x="40" y="640" />
            </Array>
          </mxGeometry>
        </mxCell>
        <mxCell id="RG2h2jKhyS0ISpvMEcNR-27" value="i += 2 ?" style="rounded=1;whiteSpace=wrap;html=1;fontSize=12;glass=0;strokeWidth=1;shadow=0;fontFamily=Helvetica;fontColor=#000000;" vertex="1" parent="1">
          <mxGeometry x="60" y="814" width="120" height="40" as="geometry" />
        </mxCell>
        <mxCell id="RG2h2jKhyS0ISpvMEcNR-28" value="Done" style="strokeWidth=1;html=1;shape=mxgraph.flowchart.start_1;whiteSpace=wrap;fontFamily=Helvetica;fontSize=12;fontColor=#000000;" vertex="1" parent="1">
          <mxGeometry x="390" y="514" width="86" height="47" as="geometry" />
        </mxCell>
        <mxCell id="RG2h2jKhyS0ISpvMEcNR-29" value="Yes" style="text;html=1;align=center;verticalAlign=middle;resizable=0;points=[];autosize=1;strokeColor=none;fillColor=none;fontFamily=Helvetica;fontSize=12;fontColor=#000000;" vertex="1" parent="1">
          <mxGeometry x="172" y="193" width="40" height="30" as="geometry" />
        </mxCell>
        <mxCell id="RG2h2jKhyS0ISpvMEcNR-30" style="edgeStyle=orthogonalEdgeStyle;rounded=0;orthogonalLoop=1;jettySize=auto;html=1;entryX=0.5;entryY=1;entryDx=0;entryDy=0;entryPerimeter=0;fontFamily=Helvetica;fontSize=12;fontColor=#000000;" edge="1" parent="1" source="RG2h2jKhyS0ISpvMEcNR-25" target="RG2h2jKhyS0ISpvMEcNR-28">
          <mxGeometry relative="1" as="geometry" />
        </mxCell>
        <mxCell id="RG2h2jKhyS0ISpvMEcNR-31" style="edgeStyle=orthogonalEdgeStyle;rounded=0;orthogonalLoop=1;jettySize=auto;html=1;entryX=0.5;entryY=0;entryDx=0;entryDy=0;entryPerimeter=0;fontFamily=Helvetica;fontSize=12;fontColor=#000000;" edge="1" parent="1" source="RG2h2jKhyS0ISpvMEcNR-10" target="RG2h2jKhyS0ISpvMEcNR-28">
          <mxGeometry relative="1" as="geometry" />
        </mxCell>
        <mxCell id="RG2h2jKhyS0ISpvMEcNR-32" style="edgeStyle=orthogonalEdgeStyle;rounded=0;orthogonalLoop=1;jettySize=auto;html=1;entryX=0.5;entryY=0;entryDx=0;entryDy=0;entryPerimeter=0;fontFamily=Helvetica;fontSize=12;fontColor=#000000;" edge="1" parent="1" source="RG2h2jKhyS0ISpvMEcNR-17" target="RG2h2jKhyS0ISpvMEcNR-28">
          <mxGeometry relative="1" as="geometry" />
        </mxCell>
        <mxCell id="RG2h2jKhyS0ISpvMEcNR-33" style="edgeStyle=orthogonalEdgeStyle;rounded=0;orthogonalLoop=1;jettySize=auto;html=1;entryX=0.5;entryY=0;entryDx=0;entryDy=0;entryPerimeter=0;fontFamily=Helvetica;fontSize=12;fontColor=#000000;" edge="1" parent="1" source="RG2h2jKhyS0ISpvMEcNR-4" target="RG2h2jKhyS0ISpvMEcNR-28">
          <mxGeometry relative="1" as="geometry" />
        </mxCell>
        <mxCell id="RG2h2jKhyS0ISpvMEcNR-34" style="edgeStyle=orthogonalEdgeStyle;rounded=0;orthogonalLoop=1;jettySize=auto;html=1;entryX=0.5;entryY=1;entryDx=0;entryDy=0;entryPerimeter=0;fontFamily=Helvetica;fontSize=12;fontColor=#000000;" edge="1" parent="1" source="RG2h2jKhyS0ISpvMEcNR-24" target="RG2h2jKhyS0ISpvMEcNR-28">
          <mxGeometry relative="1" as="geometry" />
        </mxCell>
        <mxCell id="RG2h2jKhyS0ISpvMEcNR-35" value="Yes" style="text;html=1;align=center;verticalAlign=middle;resizable=0;points=[];autosize=1;strokeColor=none;fillColor=none;fontFamily=Helvetica;fontSize=12;fontColor=#000000;" vertex="1" parent="1">
          <mxGeometry x="172" y="302" width="40" height="30" as="geometry" />
        </mxCell>
        <mxCell id="RG2h2jKhyS0ISpvMEcNR-36" value="Yes" style="text;html=1;align=center;verticalAlign=middle;resizable=0;points=[];autosize=1;strokeColor=none;fillColor=none;fontFamily=Helvetica;fontSize=12;fontColor=#000000;" vertex="1" parent="1">
          <mxGeometry x="172" y="418" width="40" height="30" as="geometry" />
        </mxCell>
        <mxCell id="RG2h2jKhyS0ISpvMEcNR-37" value="No" style="text;html=1;align=center;verticalAlign=middle;resizable=0;points=[];autosize=1;strokeColor=none;fillColor=none;fontFamily=Helvetica;fontSize=12;fontColor=#000000;" vertex="1" parent="1">
          <mxGeometry x="172" y="609" width="40" height="30" as="geometry" />
        </mxCell>
        <mxCell id="RG2h2jKhyS0ISpvMEcNR-38" value="Yes" style="text;html=1;align=center;verticalAlign=middle;resizable=0;points=[];autosize=1;strokeColor=none;fillColor=none;fontFamily=Helvetica;fontSize=12;fontColor=#000000;" vertex="1" parent="1">
          <mxGeometry x="172" y="713" width="40" height="30" as="geometry" />
        </mxCell>
        <mxCell id="RG2h2jKhyS0ISpvMEcNR-39" value="No" style="text;html=1;align=center;verticalAlign=middle;resizable=0;points=[];autosize=1;strokeColor=none;fillColor=none;fontFamily=Helvetica;fontSize=12;fontColor=#000000;" vertex="1" parent="1">
          <mxGeometry x="120" y="155" width="40" height="30" as="geometry" />
        </mxCell>
        <mxCell id="RG2h2jKhyS0ISpvMEcNR-40" value="No" style="text;html=1;align=center;verticalAlign=middle;resizable=0;points=[];autosize=1;strokeColor=none;fillColor=none;fontFamily=Helvetica;fontSize=12;fontColor=#000000;" vertex="1" parent="1">
          <mxGeometry x="120" y="262" width="40" height="30" as="geometry" />
        </mxCell>
        <mxCell id="RG2h2jKhyS0ISpvMEcNR-41" value="No" style="text;html=1;align=center;verticalAlign=middle;resizable=0;points=[];autosize=1;strokeColor=none;fillColor=none;fontFamily=Helvetica;fontSize=12;fontColor=#000000;" vertex="1" parent="1">
          <mxGeometry x="120" y="372" width="40" height="30" as="geometry" />
        </mxCell>
        <mxCell id="RG2h2jKhyS0ISpvMEcNR-42" value="No" style="text;html=1;align=center;verticalAlign=middle;resizable=0;points=[];autosize=1;strokeColor=none;fillColor=none;fontFamily=Helvetica;fontSize=12;fontColor=#000000;" vertex="1" parent="1">
          <mxGeometry x="120" y="484" width="40" height="30" as="geometry" />
        </mxCell>
        <mxCell id="RG2h2jKhyS0ISpvMEcNR-43" value="Yes" style="text;html=1;align=center;verticalAlign=middle;resizable=0;points=[];autosize=1;strokeColor=none;fillColor=none;fontFamily=Helvetica;fontSize=12;fontColor=#000000;" vertex="1" parent="1">
          <mxGeometry x="120" y="675" width="40" height="30" as="geometry" />
        </mxCell>
        <mxCell id="RG2h2jKhyS0ISpvMEcNR-44" value="No" style="text;html=1;align=center;verticalAlign=middle;resizable=0;points=[];autosize=1;strokeColor=none;fillColor=none;fontFamily=Helvetica;fontSize=12;fontColor=#000000;" vertex="1" parent="1">
          <mxGeometry x="120" y="778" width="40" height="30" as="geometry" />
        </mxCell>
      </root>
    </mxGraphModel>
  </diagram>
</mxfile>
